<svg xmlns="http://www.w3.org/2000/svg" width="17.951" height="16.963" viewBox="0 0 17.951 16.963">
  <g id="television" transform="translate(0 -0.032)">
    <path id="Shape" d="M1.561,16.963A1.536,1.536,0,0,1,0,15.457V4.736A1.536,1.536,0,0,1,1.561,3.229h6L5.216.963a.551.551,0,0,1,0-.8.6.6,0,0,1,.827,0L8.976,3,11.907.167a.6.6,0,0,1,.826,0,.549.549,0,0,1,0,.8L10.387,3.229h6a1.537,1.537,0,0,1,1.562,1.507V15.457a1.537,1.537,0,0,1-1.562,1.507Z" transform="translate(0 0.032)" fill="#7d86a9"/>
    <path id="Shape-2" data-name="Shape" d="M0,1.923A1.961,1.961,0,0,1,1.993,0,1.961,1.961,0,0,1,3.985,1.923,1.961,1.961,0,0,1,1.993,3.848,1.961,1.961,0,0,1,0,1.923Z" transform="translate(6.977 7.179)" fill="#7d86a9"/>
  </g>
</svg>
