<svg xmlns="http://www.w3.org/2000/svg" width="19.882" height="16.612" viewBox="0 0 19.882 16.612">
  <g id="download-business-statistics-symbol-of-a-graphic" transform="translate(-0.037)">
    <path id="Shape" d="M0,16.612V0H19.882V16.612Z" transform="translate(0.037)" fill="#202020"/>
    <path id="Shape-2" data-name="Shape" d="M2.322,0,0,2.468V6.632a.21.21,0,0,0,.208.212h2.82a.21.21,0,0,0,.208-.212V.244L2.585,0Z" transform="translate(3.368 7.804)" fill="#202020"/>
    <path id="Shape-3" data-name="Shape" d="M3.028,0H.208A.21.21,0,0,0,0,.212V4.7a.21.21,0,0,0,.208.213H3.028A.21.21,0,0,0,3.236,4.7V.212A.21.21,0,0,0,3.028,0Z" transform="translate(8.406 9.739)" fill="#202020"/>
    <path id="Shape-4" data-name="Shape" d="M2.365.437,1.853,0,0,2.065V9.7a.21.21,0,0,0,.208.212h2.82A.21.21,0,0,0,3.236,9.7V.507C3.224.514,3.214.523,3.2.529a.746.746,0,0,1-.351.088A.746.746,0,0,1,2.365.437Z" transform="translate(13.166 4.734)" fill="#202020"/>
    <path id="Shape-5" data-name="Shape" d="M.416,7.988a.411.411,0,0,0,.3-.13L3.37,5.037,8.014,6.782a.411.411,0,0,0,.45-.112L12.74,1.906l1,.854a.155.155,0,0,0,.174.019A.161.161,0,0,0,14,2.623L13.781.146A.158.158,0,0,0,13.611,0L11.186.222a.158.158,0,0,0-.136.112A.169.169,0,0,0,11.043.4.161.161,0,0,0,11.1.5l1,.856L8.04,5.886,3.4,4.144a.412.412,0,0,0-.444.1L.116,7.269a.431.431,0,0,0,.012.6A.409.409,0,0,0,.416,7.988Z" transform="translate(2.264 1.965)" fill="#202020"/>
  </g>
</svg>
